<?xml version="1.0" encoding="UTF-8"?>
<svg xmlns="http://www.w3.org/2000/svg" version="1.1" viewBox="0 0 295 295">
  <defs>
    <style>
      .cls-1 {
        fill: #f5f5f5;
      }
    </style>
  </defs>
  <!-- Generator: Adobe Illustrator 28.6.0, SVG Export Plug-In . SVG Version: 1.2.0 Build 709)  -->
  <g>
    <g id="Calque_1">
      <path class="cls-1" d="M173.4,215.9c7-1.6,13.8-2.8,20.5-4.7,23.7-6.8,37.5-22.7,41.9-46.8,2.5-13.8,3.6-27.8-1.8-41.1-2.4-5.9-6.3-11.1-9.3-16.7-.6-1.1-1.1-2.7-.7-3.8,3.2-11.7,2.4-23.1-1.4-34.5-.7-2-1.9-2.2-3.5-2.2-8.3,0-15.6,3.2-22.7,7-4,2.1-7.7,4.7-11.7,6.9-1.1.6-2.6,1-3.8.7-22.4-5.8-44.8-5.7-67.2,0-1.2.3-2.9-.2-4-.9-7.4-4.8-15-9.4-23.6-11.8-3.6-1-7.4-1.3-11.2-1.6-.8,0-2.3,1-2.6,1.9-4.1,11.4-5,23-1.6,34.7.3,1,.2,2.6-.4,3.3-10.9,13.1-14.4,28.3-13.2,44.9.9,13.1,3.4,25.7,10.6,36.9,9.1,14.2,22.9,21.3,38.7,25.1,4.8,1.1,9.6,1.9,14.8,2.8-5,5.2-7.3,11.4-8.6,18.1-.1.6-.9,1.4-1.5,1.7-14.9,6.3-29.4,3.9-38.6-10.7-3.3-5.3-7-10.3-12.6-13.5-4-2.3-8.2-3.9-12.9-3.1-1.3.2-3.2,1-3.6,2-.3.9.9,2.5,1.7,3.7.6.8,1.5,1.5,2.4,2,7.9,4.9,13,12.1,16.1,20.5,6.2,17.3,22.3,24.5,40.4,22.4,2.6-.3,5.2-.7,8.2-1.2,0,8.6.2,17.2,0,25.7-.2,5.2-5.1,7.5-10.7,5.5-13.9-4.9-26.8-11.7-38.4-20.8C23.1,236.5,3.1,195,6,144.6,9.6,83.8,39.7,39.1,96.5,16.2c51.5-20.7,99.9-11.2,142.3,24.5,27.8,23.4,43.5,54,48.8,89.8,9.5,64.7-24.9,127.5-84.2,154.2-3.4,1.5-6.8,2.9-10.2,4.1-6.5,2.2-10.9-.9-10.9-7.8,0-14.3.2-28.7,0-43-.2-8.3-2.9-15.9-8.8-22.1Z"/>
    </g>
  </g>
</svg>