<?xml version="1.0" encoding="UTF-8"?>
<svg xmlns="http://www.w3.org/2000/svg" version="1.1" viewBox="0 0 295 295">
  <defs>
    <style>
      .cls-1 {
        fill: #1ad2f6;
      }
    </style>
  </defs>
  <!-- Generator: Adobe Illustrator 28.6.0, SVG Export Plug-In . SVG Version: 1.2.0 Build 709)  -->
  <g>
    <g id="Calque_1">
      <g id="Calque_1-2" data-name="Calque_1">
        <path class="cls-1" d="M173.5,215.6c7-1.6,13.8-2.8,20.5-4.7,23.7-6.8,37.5-22.6,41.9-46.6,2.5-13.8,3.6-27.7-1.8-41-2.4-5.9-6.3-11.1-9.3-16.6-.6-1.1-1.1-2.7-.7-3.8,3.2-11.7,2.4-23-1.4-34.4-.7-2-1.9-2.2-3.5-2.2-8.3,0-15.6,3.2-22.7,7-4,2.1-7.7,4.7-11.7,6.9-1.1.6-2.6,1-3.8.7-22.4-5.8-44.8-5.7-67.2,0-1.2.3-2.9-.2-4-.9-7.4-4.8-15-9.4-23.6-11.8-3.6-1-7.4-1.3-11.2-1.6-.8,0-2.3,1-2.6,1.9-4.1,11.4-5,22.9-1.6,34.6.3,1,.2,2.6-.4,3.3-10.9,13.1-14.4,28.2-13.2,44.7.9,13.1,3.4,25.6,10.6,36.8,9.1,14.2,22.9,21.2,38.7,25,4.8,1.1,9.6,1.9,14.8,2.8-5,5.2-7.3,11.4-8.6,18-.1.6-.9,1.4-1.5,1.7-14.9,6.3-29.4,3.9-38.6-10.7-3.3-5.3-7-10.3-12.6-13.5-4-2.3-8.2-3.9-12.9-3.1-1.3.2-3.2,1-3.6,2-.3.9.9,2.5,1.7,3.7.6.8,1.5,1.5,2.4,2,7.9,4.9,13,12.1,16.1,20.4,6.2,17.2,22.3,24.4,40.4,22.3,2.6-.3,5.2-.7,8.2-1.2,0,8.6.2,17.1,0,25.6-.2,5.2-5.1,7.5-10.7,5.5-13.9-4.9-26.8-11.7-38.4-20.7C23.1,236.1,3.1,194.7,6,144.5c3.6-60.6,33.7-105.1,90.5-128,51.5-20.6,99.9-11.2,142.3,24.4,27.8,23.3,43.5,53.8,48.8,89.5,9.5,64.5-24.9,127.1-84.2,153.7-3.4,1.5-6.8,2.9-10.2,4.1-6.5,2.2-10.9-.9-10.9-7.8,0-14.3.2-28.6,0-42.9-.2-8.3-2.9-15.8-8.8-22h-.1Z"/>
      </g>
    </g>
  </g>
</svg>