<?xml version="1.0" encoding="UTF-8"?>
<svg xmlns="http://www.w3.org/2000/svg" version="1.1" viewBox="0 0 295 295">
  <defs>
    <style>
      .cls-1 {
        fill: #1ad2f6;
      }
    </style>
  </defs>
  <!-- Generator: Adobe Illustrator 28.6.0, SVG Export Plug-In . SVG Version: 1.2.0 Build 709)  -->
  <g>
    <g id="Calque_1">
      <g id="Calque_1-2" data-name="Calque_1">
        <path class="cls-1" d="M172.9,147.5c0,14-11.4,25.3-25.4,25.3s-25.4-11.4-25.4-25.3,11.3-25.3,25.4-25.3,25.4,11.4,25.4,25.3Z"/>
        <path class="cls-1" d="M191.4,79h-87.7c-15.7,0-28.5,12.8-28.5,28.4v80.2c0,15.7,12.8,28.4,28.5,28.4h87.7c15.7,0,28.5-12.8,28.5-28.4v-80.2c0-15.7-12.8-28.4-28.5-28.4ZM147.5,188.4c-22.5,0-40.8-18.3-40.8-40.8s18.3-40.8,40.8-40.8,40.8,18.3,40.8,40.8-18.3,40.8-40.8,40.8ZM192.2,113.3c-6.1,0-11-4.9-11-11s4.9-11,11-11,11,4.9,11,11-4.9,11-11,11ZM191.4,79h-87.7c-15.7,0-28.5,12.8-28.5,28.4v80.2c0,15.7,12.8,28.4,28.5,28.4h87.7c15.7,0,28.5-12.8,28.5-28.4v-80.2c0-15.7-12.8-28.4-28.5-28.4ZM147.5,188.4c-22.5,0-40.8-18.3-40.8-40.8s18.3-40.8,40.8-40.8,40.8,18.3,40.8,40.8-18.3,40.8-40.8,40.8ZM192.2,113.3c-6.1,0-11-4.9-11-11s4.9-11,11-11,11,4.9,11,11-4.9,11-11,11ZM151.4,5.8h-7.8C67.5,5.8,5.8,67.5,5.8,143.6v7.8c0,76,61.7,137.8,137.8,137.8h7.8c76.2,0,137.8-61.6,137.8-137.8v-7.8c0-76.1-61.7-137.9-137.8-137.9ZM235.3,187.6c0,24.2-19.7,43.9-43.9,43.9h-87.7c-24.2,0-43.9-19.7-43.9-43.9v-80.2c0-24.2,19.7-43.9,43.9-43.9h87.7c24.2,0,43.9,19.7,43.9,43.9v80.2h0ZM191.4,79h-87.7c-15.7,0-28.5,12.8-28.5,28.4v80.2c0,15.7,12.8,28.4,28.5,28.4h87.7c15.7,0,28.5-12.8,28.5-28.4v-80.2c0-15.7-12.8-28.4-28.5-28.4ZM147.5,188.4c-22.5,0-40.8-18.3-40.8-40.8s18.3-40.8,40.8-40.8,40.8,18.3,40.8,40.8-18.3,40.8-40.8,40.8ZM192.2,113.3c-6.1,0-11-4.9-11-11s4.9-11,11-11,11,4.9,11,11-4.9,11-11,11Z"/>
      </g>
    </g>
  </g>
</svg>