<?xml version="1.0" encoding="UTF-8"?>
<svg xmlns="http://www.w3.org/2000/svg" version="1.1" viewBox="0 0 295 295">
  <defs>
    <style>
      .cls-1 {
        fill: #f5f5f5;
      }
    </style>
  </defs>
  <!-- Generator: Adobe Illustrator 28.6.0, SVG Export Plug-In . SVG Version: 1.2.0 Build 709)  -->
  <g>
    <g id="Calque_1">
      <path class="cls-1" d="M151.4,5.8h-7.8C67.5,5.8,5.8,67.5,5.8,143.6v7.8c0,76.1,61.7,137.8,137.8,137.8h7.8c76.1,0,137.8-61.6,137.8-137.8v-7.8c0-76.1-61.7-137.8-137.8-137.8ZM104.5,226.1h-33.6v-106.3h33.6v106.3ZM102,100c-3.8,3.5-8.5,5.2-14.2,5.2s-10.6-1.7-14.4-5.2c-3.8-3.5-5.6-7.7-5.6-12.9s1.8-9.6,5.6-13.1c3.8-3.5,8.5-5.2,14.4-5.2s10.5,1.7,14.2,5.2c3.8,3.5,5.6,7.8,5.6,13.1s-1.8,9.4-5.6,12.9ZM227.2,224.3h-31.9v-56.8c0-7-1.8-12.5-5.4-16.4-3.7-3.9-8.5-5.8-14.6-5.8s-11,1.9-14.6,5.8-5.4,9.3-5.4,16.4v56.8h-32v-104.7h32v13.8c3.3-4.6,7.6-8.3,13.2-10.9,5.5-2.7,11.7-4.1,18.6-4.1,12.2,0,22,4.1,29.3,12,7.4,7.9,10.9,18.9,10.9,32.7v61.2Z"/>
    </g>
  </g>
</svg>